<svg viewBox="0 0 32 32" xmlns="http://www.w3.org/2000/svg"><g id="_01_Real_Estate" data-name="01 Real Estate"><rect fill="#57a4ff" height="12.652" rx="2" width="5" x="1" y="11.346"/><path d="m4 24.748h-1a2.752 2.752 0 0 1 -2.75-2.748v-8.654a2.752 2.752 0 0 1 2.75-2.746h1a2.752 2.752 0 0 1 2.75 2.75v8.65a2.752 2.752 0 0 1 -2.75 2.748zm-1-12.648a1.251 1.251 0 0 0 -1.25 1.25v8.65a1.251 1.251 0 0 0 1.25 1.248h1a1.251 1.251 0 0 0 1.25-1.248v-8.654a1.251 1.251 0 0 0 -1.25-1.246z" fill="#424ede"/><path d="m27 22.935h-5.262a5.045 5.045 0 0 1 -1.87-.435l.569-.568a2.007 2.007 0 0 0 0-2.83l-5.41-5.411a4.383 4.383 0 0 0 -2.152-.691h-6.875v9l6.992 6h14.008a2.009 2.009 0 0 0 2-2v-1.065a2.007 2.007 0 0 0 -2-2z" fill="#00e7f0"/><path d="m27 28.752h-14.008a.746.746 0 0 1 -.488-.181l-6.992-6a.749.749 0 0 1 -.262-.571v-9a.75.75 0 0 1 .75-.75h6.875a4.824 4.824 0 0 1 2.683.912l5.41 5.411a2.76 2.76 0 0 1 .276 3.568 3 3 0 0 0 .494.047h5.262a2.752 2.752 0 0 1 2.75 2.75v1.062a2.754 2.754 0 0 1 -2.75 2.752zm-13.73-1.5h13.73a1.254 1.254 0 0 0 1.25-1.252v-1.064a1.251 1.251 0 0 0 -1.25-1.25h-5.262a5.755 5.755 0 0 1 -2.162-.5.749.749 0 0 1 -.238-1.221l.569-.569a1.253 1.253 0 0 0 0-1.769l-5.407-5.405a3.691 3.691 0 0 0 -1.677-.476h-6.07v7.9z" fill="#424ede"/><path d="m18.316 23.973a2.741 2.741 0 0 1 -1.944-.8l-3.41-3.41a.75.75 0 0 1 1.06-1.061l3.411 3.41a1.251 1.251 0 0 0 1.767 0l.707-.707a1.254 1.254 0 0 0 0-1.77l-5.407-5.413a.75.75 0 0 1 1.061-1.061l5.41 5.41a2.759 2.759 0 0 1 0 3.89l-.708.708a2.741 2.741 0 0 1 -1.947.804z" fill="#424ede"/><path d="m29.124 8.084v5.914h-8.172v-5.914l4.086-4.086z" fill="#00e7f0"/><g fill="#424ede"><path d="m29.124 14.748h-8.172a.75.75 0 0 1 -.752-.748v-5.916a.747.747 0 0 1 .22-.53l4.086-4.086a.749.749 0 0 1 1.06 0l4.086 4.086a.747.747 0 0 1 .22.53v5.916a.75.75 0 0 1 -.748.748zm-7.422-1.5h6.672v-4.848l-3.336-3.341-3.338 3.341z"/><path d="m31 10.709a.744.744 0 0 1 -.53-.22l-5.432-5.43-5.432 5.43a.75.75 0 0 1 -1.06-1.06l5.962-5.961a.749.749 0 0 1 1.06 0l5.962 5.961a.75.75 0 0 1 -.53 1.28z"/><path d="m25.038 14.748a.75.75 0 0 1 -.75-.75v-2.062a.75.75 0 0 1 1.5 0v2.064a.75.75 0 0 1 -.75.748z"/></g></g></svg>