<svg id="Capa_1" enable-background="new 0 0 512 512" height="300" viewBox="0 0 512 512" width="300" xmlns="http://www.w3.org/2000/svg" version="1.1" xmlns:xlink="http://www.w3.org/1999/xlink" xmlns:svgjs="http://svgjs.dev/svgjs"><g width="100%" height="100%" transform="matrix(1,0,0,1,0,0)"><g><g id="Page-1_50_"><g id="_x30_51---Cold-Blow"><path id="Shape_326_" d="m486.4 0h-460.8c-14.138 0-25.6 11.462-25.6 25.6v179.2c.038 32.974 26.759 59.696 59.733 59.733h392.533c32.974-.038 59.696-26.759 59.733-59.733v-179.2c.001-14.138-11.46-25.6-25.599-25.6zm-34.133 17.067v68.267c0 9.426-7.641 17.067-17.067 17.067h-358.4c-9.426 0-17.067-7.641-17.067-17.067v-68.267zm-349.867 230.4v-17.067c0-9.426 7.641-17.067 17.067-17.067h273.067c9.426 0 17.067 7.641 17.067 17.067v17.067zm392.533-42.667c-.028 23.552-19.114 42.638-42.667 42.667h-25.6v-17.067c0-18.851-15.282-34.133-34.133-34.133h-273.066c-18.851 0-34.133 15.282-34.133 34.133v17.067h-25.6c-23.552-.028-42.638-19.114-42.667-42.667v-179.2c0-4.713 3.821-8.533 8.533-8.533h17.067v68.267c0 18.851 15.282 34.133 34.133 34.133h358.4c18.851 0 34.133-15.282 34.133-34.133v-68.267h17.067c4.713 0 8.533 3.821 8.533 8.533z" fill="#ffffff" fill-opacity="1" data-original-color="#000000ff" stroke="none" stroke-opacity="1"/><path id="Shape_325_" d="m307.2 162.133h-102.4c-4.713 0-8.533 3.821-8.533 8.533 0 4.713 3.821 8.533 8.533 8.533h102.4c4.713 0 8.533-3.821 8.533-8.533s-3.82-8.533-8.533-8.533z" fill="#ffffff" fill-opacity="1" data-original-color="#000000ff" stroke="none" stroke-opacity="1"/><path id="Shape_324_" d="m85.333 85.333h341.333c4.713 0 8.533-3.82 8.533-8.533s-3.82-8.533-8.533-8.533h-341.333c-4.713 0-8.533 3.821-8.533 8.533 0 4.713 3.821 8.533 8.533 8.533z" fill="#ffffff" fill-opacity="1" data-original-color="#000000ff" stroke="none" stroke-opacity="1"/><path id="Shape_323_" d="m85.333 51.2h341.333c4.713 0 8.533-3.821 8.533-8.533s-3.82-8.533-8.533-8.533h-341.333c-4.713 0-8.533 3.821-8.533 8.533s3.821 8.533 8.533 8.533z" fill="#ffffff" fill-opacity="1" data-original-color="#000000ff" stroke="none" stroke-opacity="1"/><circle id="Oval_16_" cx="426.667" cy="170.667" r="8.533" fill="#ffffff" fill-opacity="1" data-original-color="#000000ff" stroke="none" stroke-opacity="1"/><circle id="Oval_15_" cx="460.8" cy="170.667" r="8.533" fill="#ffffff" fill-opacity="1" data-original-color="#000000ff" stroke="none" stroke-opacity="1"/><path id="Shape_322_" d="m62.694 304.06 83.797 16.546c2.025.399 4.126.05 5.914-.981l36.873-21.248c4.084-2.356 5.484-7.577 3.127-11.661-2.356-4.084-7.577-5.484-11.661-3.127l-34.091 19.627-80.7-15.915c-9.976-1.985-20.188 2.071-26.083 10.361s-6.374 19.268-1.223 28.039c3.797 6.36 10.104 10.82 17.365 12.279l22.707 4.48-22.724 13.193c-5.986 3.327-10.37 8.935-12.151 15.548-2.777 10.106.824 20.888 9.115 27.297 8.291 6.41 19.633 7.179 28.713 1.946l22.886-13.21-7.484 21.888c-4.509 13.534 2.675 28.183 16.137 32.905 13.521 4.469 28.124-2.755 32.777-16.213l26.522-77.867 57.728-33.323v66.662l-54.195 61.918c-7.409 8.493-8.482 20.8-2.654 30.447 1.415 2.186 3.111 4.177 5.043 5.922 5.162 4.545 11.922 6.845 18.785 6.392s13.262-3.623 17.781-8.807l15.155-17.391v26.377c0 14.28 11.576 25.856 25.856 25.856s25.856-11.576 25.856-25.856v-26.453l15.241 17.434c4.495 5.218 10.902 8.405 17.775 8.841 6.835.503 13.581-1.788 18.697-6.349 10.705-9.381 11.801-25.655 2.449-36.386l-54.212-61.926v-66.662l57.728 33.331 26.539 77.653c.488 1.689 1.199 3.305 2.116 4.804 6.122 10.746 19.03 15.607 30.72 11.571 13.445-4.695 20.622-19.321 16.111-32.828l-7.458-21.922 22.81 13.184c5.943 3.441 13.012 4.377 19.646 2.6s12.289-6.12 15.716-12.072c3.444-6.03 4.32-13.191 2.432-19.874-1.766-6.513-6.069-12.045-11.947-15.36l-22.852-13.218 22.724-4.489c13.99-2.825 23.098-16.386 20.42-30.404-1.325-6.712-5.264-12.622-10.949-16.428s-12.65-5.196-19.361-3.864l-80.751 15.932-34.082-19.627c-4.084-2.356-9.304-.956-11.661 3.127-2.356 4.084-.956 9.304 3.127 11.661l36.864 21.248c1.785 1.029 3.883 1.378 5.905.981l83.849-16.538c2.274-.468 4.64-.011 6.576 1.27s3.282 3.28 3.74 5.556c.877 4.78-2.247 9.379-7.014 10.325l-44.971 8.875c-3.487.69-6.182 3.469-6.763 6.976s1.073 7.007 4.152 8.785l42.59 24.636c1.963 1.103 3.402 2.947 3.994 5.12.654 2.292.362 4.751-.811 6.827-1.165 2.022-3.092 3.491-5.35 4.079-2.232.62-4.62.312-6.622-.853l-42.496-24.576c-3.072-1.855-6.975-1.59-9.768.663s-3.878 6.012-2.716 9.407l14.763 43.426c1.485 4.33-.613 9.073-4.815 10.888s-9.094.09-11.228-3.959c-.208-.396-.371-.814-.486-1.246l-27.648-80.905c-.666-1.954-2.018-3.6-3.806-4.634l-73.301-42.325c-2.642-1.525-5.896-1.524-8.537.002s-4.266 4.346-4.263 7.396v84.651c.002 2.066.754 4.061 2.116 5.615l56.32 64.316c3.166 3.642 2.784 9.16-.853 12.331-1.719 1.567-4.013 2.349-6.332 2.159-2.313-.154-4.467-1.233-5.973-2.995l-30.208-34.56c-2.34-2.678-6.095-3.624-9.424-2.374s-5.534 4.433-5.535 7.989v49.152c.002 2.333-.923 4.572-2.571 6.224s-3.885 2.581-6.219 2.583c-3.11.019-5.983-1.655-7.501-4.369-.811-1.334-1.255-2.859-1.289-4.42v-49.152c0-3.559-2.208-6.744-5.54-7.992-3.333-1.248-7.09-.297-9.427 2.386l-30.114 34.534c-1.529 1.764-3.703 2.837-6.033 2.978-2.332.192-4.639-.589-6.374-2.159-.7-.641-1.322-1.363-1.852-2.15-1.93-3.238-1.526-7.355.998-10.155l56.32-64.341c1.362-1.554 2.114-3.549 2.116-5.615v-84.617c.003-3.05-1.622-5.87-4.263-7.396s-5.895-1.527-8.537-.002l-73.301 42.325c-1.792 1.034-3.148 2.684-3.814 4.642l-27.531 80.818c-1.549 4.582-6.487 7.073-11.093 5.598-2.12-.695-3.877-2.206-4.881-4.198-1.273-2.107-1.521-4.678-.674-6.989l14.839-43.435c1.152-3.365.096-7.093-2.651-9.353s-6.608-2.58-9.688-.801l-42.667 24.618c-1.97 1.166-4.333 1.475-6.537.853-2.254-.579-4.171-2.06-5.299-4.096-1.21-2.035-1.546-4.472-.93-6.758.617-2.222 2.107-4.1 4.13-5.205l42.505-24.576c3.079-1.779 4.732-5.28 4.149-8.788s-3.28-6.286-6.768-6.973l-44.919-8.875c-2.476-.498-4.637-1.996-5.973-4.139-1.088-1.823-1.479-3.978-1.101-6.067.944-4.799 5.59-7.93 10.392-7.006z" fill="#ffffff" fill-opacity="1" data-original-color="#000000ff" stroke="none" stroke-opacity="1"/></g></g></g></g></svg>