<svg clip-rule="evenodd" fill-rule="evenodd" height="512" image-rendering="optimizeQuality" shape-rendering="geometricPrecision" text-rendering="geometricPrecision" viewBox="0 0 1707 1707" width="512" xmlns="http://www.w3.org/2000/svg"><g id="Layer_x0020_1"><g id="_483343064"><g><g><g><path d="m1394 1490h-1079c-14 0-25-11-25-25v-298c0-14 11-25 25-25h1079c14 0 25 11 25 25v299c-1 13-11 24-25 24zm-1055-48h1030v-252h-1030z"/></g><g><path d="m1393 1190h-1078c-14 0-25-11-25-25v-120c0-79 65-145 144-145h840c79 0 144 66 144 145v122c0 12-11 23-25 23zm-1054-48h1029v-97c0-53-43-96-96-96h-838c-52 0-95 43-95 96z"/></g><g><path d="m315 1490h-184c-14 0-25-11-25-25v-592c-63-25-106-86-106-156 0-93 76-169 169-169s170 76 170 169v749c0 13-11 24-24 24zm-161-48h136v-725c0-66-54-120-121-120-66 0-120 54-120 120 0 54 36 102 87 116 11 2 18 12 18 23z"/></g><g><path d="m1577 1490h-184c-14 0-25-11-25-25v-749c0-93 76-169 169-169s169 76 169 169c0 69-41 130-105 157v592c1 14-10 25-24 25zm-159-48h136v-586c0-11 7-21 18-23 51-14 87-63 87-116 0-66-54-120-120-120-67 0-121 54-121 120z"/></g><g><path d="m1532 597c-13 0-23-9-24-21-37-248-255-434-505-434h-298c-250 0-468 186-505 434-1 14-14 22-28 21-14-2-22-14-21-28 42-272 281-476 554-476h298c275 0 512 205 554 476 1 14-7 25-21 28-2 0-3 0-4 0z"/></g><g><g><g><g><path d="m627 421c-43 0-77-35-77-78s34-79 77-79 78 36 78 79c0 41-35 78-78 78zm0-110c-16 0-29 14-29 30 0 17 14 30 29 30s29-14 29-30-12-30-29-30z"/></g><g><path d="m627 311c-14 0-25-11-25-25v-67c0-13 11-25 25-25s25 12 25 25v67c0 14-11 25-25 25z"/></g><g><path d="m749 366h-68c-14 0-25-11-25-25 0-13 11-25 25-25h68c14 0 25 12 25 25 0 14-11 25-25 25z"/></g><g><path d="m627 487c-14 0-25-11-25-25v-68c0-14 11-25 25-25s25 11 25 25v68c0 15-11 25-25 25z"/></g><g><path d="m573 366h-68c-14 0-25-11-25-25 0-13 11-25 25-25h68c14 0 25 12 25 25 0 14-11 25-25 25z"/></g></g><g><g><path d="m1079 421c-43 0-77-35-77-78s34-79 77-79 78 36 78 79c2 41-35 78-78 78zm0-110c-16 0-29 14-29 30 0 17 14 30 29 30 17 0 30-14 30-30 1-16-13-30-30-30z"/></g><g><path d="m1079 311c-13 0-25-11-25-25v-67c0-13 12-25 25-25 14 0 25 12 25 25v67c0 14-11 25-25 25z"/></g><g><path d="m1202 366h-68c-14 0-25-11-25-25 0-13 11-25 25-25h68c13 0 24 12 24 25 0 14-11 25-24 25z"/></g><g><path d="m1079 487c-13 0-25-11-25-25v-68c0-14 12-25 25-25 14 0 25 11 25 25v68c0 15-11 25-25 25z"/></g><g><path d="m1025 366h-68c-14 0-25-11-25-25 0-13 11-25 25-25h68c14 0 25 12 25 25 0 14-11 25-25 25z"/></g></g></g><g><g><g><path d="m627 780c-43 0-77-35-77-78s34-78 77-78 78 35 78 78-35 78-78 78zm0-108c-16 0-29 12-29 29 0 16 13 29 29 29 17 0 29-13 29-29 0-17-12-29-29-29z"/></g><g><path d="m627 672c-14 0-25-11-25-25v-68c0-14 11-25 25-25s25 11 25 25v68c0 14-11 25-25 25z"/></g><g><path d="m749 726h-68c-14 0-25-11-25-25s11-25 25-25h68c14 0 25 11 25 25s-11 25-25 25z"/></g><g><path d="m627 848c-14 0-25-11-25-25v-68c0-14 11-25 25-25s25 11 25 25v68c0 14-11 25-25 25z"/></g><g><path d="m573 726h-68c-14 0-25-11-25-25s11-25 25-25h68c14 0 25 11 25 25s-11 25-25 25z"/></g></g><g><g><path d="m1079 780c-43 0-77-35-77-78s34-78 77-78 78 35 78 78-35 78-78 78zm0-108c-16 0-29 12-29 29 0 16 13 29 29 29 17 0 30-13 30-29 0-17-13-29-30-29z"/></g><g><path d="m1079 672c-13 0-25-11-25-25v-68c0-14 12-25 25-25 14 0 25 11 25 25v68c0 14-11 25-25 25z"/></g><g><path d="m1202 726h-68c-14 0-25-11-25-25s11-25 25-25h68c13 0 24 11 24 25s-11 25-24 25z"/></g><g><path d="m1079 848c-13 0-25-11-25-25v-68c0-14 12-25 25-25 14 0 25 11 25 25v68c0 14-11 25-25 25z"/></g><g><path d="m1025 726h-68c-14 0-25-11-25-25s11-25 25-25h68c14 0 25 11 25 25s-11 25-25 25z"/></g></g></g></g><g><path d="m215 741h-90c-14 0-25-11-25-25s11-25 25-25h92c13 0 25 11 25 25s-13 25-27 25z"/></g><g><path d="m1584 741h-90c-14 0-25-11-25-25s11-25 25-25h90c14 0 25 11 25 25s-12 25-25 25z"/></g></g><g><g><path d="m290 1614h-130c-14 0-25-12-25-25v-124c0-14 11-25 25-25h130c14 0 25 11 25 25v124c0 13-11 25-25 25zm-105-49h82v-75h-82z"/></g><g><path d="m1548 1614h-130c-14 0-25-12-25-25v-124c0-14 11-25 25-25h130c14 0 25 11 25 25v124c-1 13-12 25-25 25zm-106-49h81v-75h-81z"/></g></g></g></g></g></svg>