<svg clip-rule="evenodd" fill-rule="evenodd" stroke-linejoin="round" stroke-miterlimit="2" viewBox="0 0 32 32" xmlns="http://www.w3.org/2000/svg" xmlns:xlink="http://www.w3.org/1999/xlink" xmlns:serif="http://www.serif.com/" width="300" height="300" version="1.1" xmlns:svgjs="http://svgjs.dev/svgjs"><g width="100%" height="100%" transform="matrix(1,0,0,1,0,0)"><clipPath id="_clip1"><path clip-rule="evenodd" d="m0 0h151.25v180h-151.25z" fill="#ffffff" fill-opacity="1" data-original-color="#000000ff" stroke="none" stroke-opacity="1"/></clipPath><g transform="translate(-156 -104)"><g id="Icon" transform="matrix(.212 0 0 .178 156 104)"><path d="m0 0h151.25v180h-151.25z" fill="none" fill-opacity="1" stroke="none" stroke-opacity="1"/><g clip-path="url(#_clip1)"><g transform="matrix(6.302 0 0 5.625 -329.284 -585)"><path d="m56.75 123c0-1.657-1.007-3-2.25-3v1c0-1 0-1 0-1-1.243 0-2.25 1.343-2.25 3v10c0 1.657 1.007 3 2.25 3h1.5c.414 0 .75-.448.75-1zm-1.5 0c0-.552-.336-1-.75-1v-1 1c-.414 0-.75.448-.75 1v10c0 .552.336 1 .75 1h.75z" fill="#ffffff" fill-opacity="1" data-original-color="#000000ff" stroke="none" stroke-opacity="1"/></g><g transform="matrix(6.302 0 0 5.625 -206.393 -585)"><path d="m56.75 123c0-1.657-1.007-3-2.25-3v1c0-1 0-1 0-1-1.243 0-2.25 1.343-2.25 3v12c0 .552.336 1 .75 1h1.5c1.243 0 2.25-1.343 2.25-3zm-1.5 0c0-.552-.336-1-.75-1v-1 1c-.414 0-.75.448-.75 1v11h.75c.414 0 .75-.448.75-1z" fill="#ffffff" fill-opacity="1" data-original-color="#000000ff" stroke="none" stroke-opacity="1"/></g><g transform="matrix(4.727 0 0 5.625 -245.781 -585)"><path d="m68 104c-2.208 0-4 1.792-4 4s1.792 4 4 4 4-1.792 4-4-1.792-4-4-4zm0 2c1.104 0 2 .896 2 2s-.896 2-2 2-2-.896-2-2 .896-2 2-2z" fill="#ffffff" fill-opacity="1" data-original-color="#000000ff" stroke="none" stroke-opacity="1"/></g><g transform="matrix(4.727 0 0 5.625 -245.781 -585)"><path d="m65 124.991c-.766-.06-1.484-.413-2.001-.99-.569-.636-.84-1.484-.746-2.332.171-1.541.396-3.566.555-5 .169-1.52 1.453-2.669 2.982-2.669h4.42c1.529 0 2.813 1.149 2.982 2.669.159 1.434.384 3.459.555 5 .094.848-.177 1.696-.746 2.332-.517.577-1.235.93-2.001.99v4.009c0 1.657-1.343 3-3 3 0 0 0 0 0-1v1c-1.657 0-3-1.343-3-3zm2-.991c0-.552-.448-1-1-1h-.765c-.285 0-.556-.121-.746-.333-.189-.212-.28-.495-.248-.777.171-1.541.396-3.566.555-5 .056-.507.485-.89.994-.89h4.42c.509 0 .938.383.994.89.159 1.434.384 3.459.555 5 .032.282-.059.565-.248.777-.19.212-.461.333-.746.333-.438 0-.765 0-.765 0-.552 0-1 .448-1 1v5c0 .552-.448 1-1 1v1-1c-.552 0-1-.448-1-1 0-2.069 0-5 0-5z" fill="#ffffff" fill-opacity="1" data-original-color="#000000ff" stroke="none" stroke-opacity="1"/></g><g transform="matrix(4.727 0 0 5.625 -245.781 -585)"><path d="m57 136h22c.552 0 1-.448 1-1s-.448-1-1-1h-22c-.552 0-1 .448-1 1s.448 1 1 1z" fill="#ffffff" fill-opacity="1" data-original-color="#000000ff" stroke="none" stroke-opacity="1"/></g><g transform="matrix(4.727 0 0 5.625 -472.656 -292.5)"><path d="m106 53v5c0 .552.448 1 1 1s1-.448 1-1v-5c0-.552-.448-1-1-1s-1 .448-1 1z" fill="#ffffff" fill-opacity="1" data-original-color="#000000ff" stroke="none" stroke-opacity="1"/></g><g transform="matrix(-4.727 0 0 -5.625 623.906 331.875)"><path d="m106 53v5c0 .552.448 1 1 1s1-.448 1-1v-5c0-.552-.448-1-1-1s-1 .448-1 1z" fill="#ffffff" fill-opacity="1" data-original-color="#000000ff" stroke="none" stroke-opacity="1"/></g><g transform="matrix(3.342 3.977 -3.151 3.75 -150.838 -610.76)"><path d="m104 53v3c0 .585.448 1.061 1 1.061s1-.476 1-1.061v-3c0-.585-.448-1.061-1-1.061s-1 .476-1 1.061z" fill="#ffffff" fill-opacity="1" data-original-color="#000000ff" stroke="none" stroke-opacity="1"/></g><g transform="matrix(-3.342 -3.977 3.151 -3.75 302.088 650.135)"><path d="m104 53v3c0 .585.448 1.061 1 1.061s1-.476 1-1.061v-3c0-.585-.448-1.061-1-1.061s-1 .476-1 1.061z" fill="#ffffff" fill-opacity="1" data-original-color="#000000ff" stroke="none" stroke-opacity="1"/></g><g transform="matrix(-3.342 3.977 3.151 3.75 217.01 -610.76)"><path d="m106 53v3c0 .585-.448 1.061-1 1.061s-1-.476-1-1.061v-3c0-.585.448-1.061 1-1.061s1 .476 1 1.061z" fill="#ffffff" fill-opacity="1" data-original-color="#000000ff" stroke="none" stroke-opacity="1"/></g><g transform="matrix(3.342 -3.977 -3.151 -3.75 -65.76 650.135)"><path d="m106 53v3c0 .585-.448 1.061-1 1.061s-1-.476-1-1.061v-3c0-.585.448-1.061 1-1.061s1 .476 1 1.061z" fill="#ffffff" fill-opacity="1" data-original-color="#000000ff" stroke="none" stroke-opacity="1"/></g></g></g></g></g></svg>