<?xml version="1.0" encoding="UTF-8"?>
<svg xmlns="http://www.w3.org/2000/svg" width="512" height="512" viewBox="0 0 128 128"><g><path d="M126.25,55.872H107.968V1.747A1.75,1.75,0,0,0,106.218,0H21.782a1.75,1.75,0,0,0-1.75,1.75V55.872H1.75A1.75,1.75,0,0,0,0,57.622v11a1.75,1.75,0,0,0,1.75,1.75H9.5A97.176,97.176,0,0,0,7.125,91.935,95,95,0,0,0,9.815,114.8a1.743,1.743,0,0,0-.065.447v6A6.758,6.758,0,0,0,16.5,128h95a6.758,6.758,0,0,0,6.75-6.75v-6a1.743,1.743,0,0,0-.065-.447,95,95,0,0,0,2.69-22.865A97.176,97.176,0,0,0,118.5,70.372h7.746a1.75,1.75,0,0,0,1.75-1.75v-11A1.75,1.75,0,0,0,126.25,55.872ZM23.532,3.5h80.936V55.872h-4.5V43.69a1.75,1.75,0,0,0-1.75-1.75H68a1.75,1.75,0,0,0-1.75,1.75V55.872h-4.5V43.69A1.75,1.75,0,0,0,60,41.94H29.782a1.75,1.75,0,0,0-1.75,1.75V55.872h-4.5ZM96.468,55.872H69.75V45.44H96.468Zm-38.218,0H31.532V45.44H58.25ZM93.039,91.935A93.849,93.849,0,0,1,90.565,113.5H86.106a95.2,95.2,0,0,1,0-43.125h4.459A93.86,93.86,0,0,1,93.039,91.935Zm1.129-21.563h12.671a99.233,99.233,0,0,0,0,43.125H94.168a97.173,97.173,0,0,0,2.371-21.562A97.176,97.176,0,0,0,94.168,70.372ZM82.5,113.5H69.833A97.173,97.173,0,0,0,72.2,91.935a97.176,97.176,0,0,0-2.371-21.563H82.5a99.233,99.233,0,0,0,0,43.125ZM68.7,91.935A93.908,93.908,0,0,1,66.23,113.5H61.77a95.2,95.2,0,0,1,0-43.125h4.46A93.919,93.919,0,0,1,68.7,91.935ZM58.167,113.5H45.5a97.173,97.173,0,0,0,2.371-21.562A97.176,97.176,0,0,0,45.5,70.372h12.67a99.233,99.233,0,0,0,0,43.125Zm-13.8-21.562A93.908,93.908,0,0,1,41.894,113.5H37.435a95.2,95.2,0,0,1,0-43.125h4.459A93.919,93.919,0,0,1,44.368,91.935ZM33.832,113.5H21.161a97.173,97.173,0,0,0,2.371-21.562,97.176,97.176,0,0,0-2.371-21.563H33.832a99.233,99.233,0,0,0,0,43.125Zm-13.8-21.562A93.926,93.926,0,0,1,17.559,113.5H13.1a95.2,95.2,0,0,1,0-43.125h4.46A93.937,93.937,0,0,1,20.032,91.935Zm94.718,29.312a3.254,3.254,0,0,1-3.25,3.25h-95a3.254,3.254,0,0,1-3.25-3.25V117h101.5Zm2.625-29.312A93.849,93.849,0,0,1,114.9,113.5h-4.46a95.24,95.24,0,0,1,0-43.125h4.46A93.86,93.86,0,0,1,117.375,91.935ZM124.5,66.872H3.5v-7.5h121Z"/><path d="M29.782,37.44H60a1.751,1.751,0,0,0,1.75-1.75V9.747A1.75,1.75,0,0,0,60,8H29.782a1.75,1.75,0,0,0-1.75,1.75V35.69A1.751,1.751,0,0,0,29.782,37.44ZM31.532,11.5H58.25V33.94H31.532Z"/><path d="M68,37.44H98.218a1.751,1.751,0,0,0,1.75-1.75V9.747A1.75,1.75,0,0,0,98.218,8H68a1.75,1.75,0,0,0-1.75,1.75V35.69A1.751,1.751,0,0,0,68,37.44ZM69.75,11.5H96.468V33.94H69.75Z"/></g></svg>
