<svg id="Heater" enable-background="new 0 0 64 64" height="512" viewBox="0 0 64 64" width="512" xmlns="http://www.w3.org/2000/svg"><path d="m21.20486 9.44131c-.14496 0-.29167-.03559-.42795-.11024-.42969-.23698-.58681-.77778-.34982-1.20747.20573-.37413.46962-.64063.70226-.875.36111-.36545.50781-.52865.50781-.91667 0-.39236-.14931-.55642-.51563-.92361-.4375-.4375-1.03733-1.03646-1.03733-2.18142 0-1.1467.59896-1.7474 1.03646-2.1849.17361-.17448.32379-.32465.40886-.47917.23785-.43056.77778-.5842 1.20746-.34983.43056.23698.58681.77778.34983 1.20747-.2066.375-.47309.64149-.70833.87674-.36719.36892-.51649.53385-.51649.92969 0 .39236.14931.55729.51649.92448.4375.4375 1.03646 1.03646 1.03646 2.18056 0 1.13368-.59028 1.7309-1.0217 2.16667-.17274.17448-.32205.32552-.40885.48264-.16234.29426-.46616.46006-.77953.46006zm7.61372-.46007c.08681-.15712.23524-.30816.40799-.48264.43142-.43576 1.0217-1.03299 1.0217-2.16667 0-1.1441-.59896-1.74306-1.03646-2.18056-.36719-.36719-.51649-.53212-.51649-.92448 0-.39583.14931-.56076.51649-.92882.23524-.23524.50174-.5026.70833-.8776.23698-.43055.07986-.97134-.34983-1.20746-.43142-.23438-.97222-.08073-1.20747.34983-.08507.15451-.23524.30556-.40885.47917-.4375.43837-1.03646 1.03819-1.03646 2.1849 0 1.14496.59983 1.74392 1.03733 2.18142.36632.36719.51563.53125.51563.92361 0 .38802-.1467.55122-.50781.91667-.23264.23524-.49566.50174-.70139.875-.23698.42969-.07986.97049.34983 1.20747.13629.07465.28299.11024.42795.11024.31336-.00001.61718-.16581.77951-.46008zm6.8342-.00086c.08507-.15625.23438-.30729.40799-.48177.43055-.43663 1.02083-1.03299 1.02083-2.16667 0-1.1441-.59896-1.74306-1.03646-2.18056-.36632-.36719-.51563-.53125-.51563-.92448 0-.39583.1493-.56163.51736-.92969.23438-.23524.5-.50174.7066-.87587.23785-.42969.0816-.97049-.34722-1.20747-.43229-.23872-.97049-.08247-1.20833.34809-.08507.15451-.23611.30469-.40973.47917-.4375.43837-1.03646 1.03819-1.03646 2.18576 0 1.14496.59896 1.74392 1.03646 2.18142.36632.36719.51563.53125.51563.92361 0 .38715-.14583.55122-.50694.9158-.23264.23611-.49653.5026-.70313.87674-.23611.42969-.07813.97049.35069 1.2066.13715.07465.28299.11024.42882.11024.3125.00001.61632-.16665.77952-.46092zm6.8316.00173c.08681-.15712.23611-.30816.40972-.48264.43056-.43576 1.02084-1.03299 1.02084-2.16753 0-1.1441-.59896-1.74306-1.03646-2.18056-.36632-.36719-.51563-.53125-.51563-.92448 0-.39583.14931-.56076.51736-.92882.23438-.23524.50174-.5026.70834-.8776.23611-.43056.07986-.97135-.3507-1.20747-.42708-.23438-.96875-.08247-1.20833.34983-.08507.15451-.23438.30556-.40799.47917-.4375.43837-1.03646 1.03819-1.03646 2.1849 0 1.14496.59896 1.74392 1.03646 2.18142.36632.36719.51563.53125.51563.92361 0 .38802-.14584.55208-.50695.91753-.23264.23438-.49652.50087-.70139.87326-.23785.42969-.0816.97049.34896 1.20833.13541.07465.28299.11024.42882.11024.3125.00001.61632-.16579.77778-.45919zm16.87561 40.68787h-2.67078v-21.39001h2.67078c2.56 0 4.64001-2.07996 4.64001-4.63995 0-2.56006-2.08002-4.65002-4.64001-4.65002h-2.72009c-.35022-2.78156-2.72565-4.94104-5.59998-4.94104-1.99976 0-3.7561 1.04749-4.76038 2.61993-1.00427-1.57245-2.76068-2.61993-4.76044-2.61993s-3.75616 1.04749-4.76038 2.61987c-1.00415-1.57239-2.76038-2.61987-4.75958-2.61987-2.00018 0-3.75629 1.04742-4.76038 2.61957-1.00415-1.57214-2.76031-2.61957-4.7605-2.61957-2.00012 0-3.75623 1.04742-4.76038 2.61957-1.00409-1.57214-2.76025-2.61957-4.76044-2.61957-2.87506 0-5.24988 2.15948-5.59998 4.94104h-2.71745c-2.55999-.00001-4.64001 2.08996-4.64001 4.65001 0 2.56 2.08002 4.63995 4.64001 4.63995h2.66815v21.39001h-2.66815c-2.55999.00001-4.64001 2.08003-4.64001 4.64003s2.08002 4.64001 4.64001 4.64001h2.71649c.34711 2.78418 2.72357 4.94788 5.60095 4.94788 2.00018 0 3.75635-1.04767 4.76044-2.61993 1.00415 1.57227 2.76025 2.61993 4.76038 2.61993 2.00018 0 3.75635-1.04767 4.7605-2.61993 1.00409 1.57227 2.76019 2.61993 4.76038 2.61993 1.99921 0 3.75543-1.04779 4.75958-2.62024 1.00421 1.57245 2.76062 2.62024 4.76038 2.62024s3.75616-1.04785 4.76044-2.6203c1.00427 1.57245 2.76062 2.6203 4.76038 2.6203 2.87665 0 5.25372-2.1637 5.60095-4.94788h2.71912c2.55998 0 4.64-2.08001 4.64-4.64001s-2.08002-4.64002-4.64001-4.64002zm-54.71998-23.16998c-1.58002 0-2.85999-1.28003-2.85999-2.85999 0-1.58002 1.27997-2.87006 2.85999-2.87006h2.66815v5.73005zm-2.85998 27.81c0-1.58002 1.27997-2.87 2.85999-2.87h2.66815v5.72998h-2.66816c-1.58001 0-2.85998-1.27997-2.85998-2.85998zm11.17743 7.81012c-2.13452 0-3.87152-1.73608-3.87152-3.87152v-38.55036c0-2.13452 1.737-3.87152 3.87152-3.87152 2.13458 0 3.87152 1.737 3.87152 3.87152v38.55036c0 2.13543-1.73694 3.87152-3.87152 3.87152zm9.52081 0c-2.13452 0-3.87152-1.73608-3.87152-3.87152v-38.55036c0-2.13452 1.737-3.87152 3.87152-3.87152 2.13458 0 3.87158 1.737 3.87158 3.87152v38.55036c0 2.13543-1.737 3.87152-3.87158 3.87152zm9.52088 0c-2.13458 0-3.87152-1.73608-3.87152-3.87152v-38.55036c0-2.13452 1.73694-3.87152 3.87152-3.87152 2.13452 0 3.87067 1.737 3.87067 3.87152v38.55036c-.00001 2.13543-1.73615 3.87152-3.87067 3.87152zm9.51995 0c-2.13544 0-3.87152-1.73608-3.87152-3.87152v-38.55036c0-2.13452 1.73608-3.87152 3.87152-3.87152s3.87152 1.737 3.87152 3.87152v38.55036c.00001 2.13543-1.73608 3.87152-3.87152 3.87152zm13.39234-3.87152c0 2.13544-1.73608 3.87152-3.87152 3.87152-2.13538 0-3.87152-1.73608-3.87152-3.87152v-38.55036c0-2.13452 1.73615-3.87152 3.87152-3.87152 2.13544 0 3.87152 1.737 3.87152 3.87152zm7.30853-34.60859c0 1.57996-1.27997 2.85999-2.85999 2.85999h-2.67078v-5.73004h2.67078c1.58002 0 2.85999 1.29004 2.85999 2.87005zm-2.85998 33.52997h-2.67078v-5.72998h2.67078c1.58002 0 2.85999 1.28998 2.85999 2.87s-1.27998 2.85998-2.85999 2.85998z"/></svg>