<svg id="Layer_1" viewBox="0 0 128 128" xmlns="http://www.w3.org/2000/svg" data-name="Layer 1"><path d="m44 15h-38a6.00656 6.00656 0 0 0 -6 6v58a2.0001 2.0001 0 0 0 2 2h1v4h-1a2.0001 2.0001 0 0 0 -2 2v30a6.00656 6.00656 0 0 0 6 6h38a6.00656 6.00656 0 0 0 6-6v-30a2.0001 2.0001 0 0 0 -2-2h-1v-4h1a2.0001 2.0001 0 0 0 2-2v-58a6.00656 6.00656 0 0 0 -6-6zm2 102a2.00229 2.00229 0 0 1 -2 2h-38a2.00229 2.00229 0 0 1 -2-2v-28h42zm-39-32v-4h36v4zm39-8h-42v-56a2.00229 2.00229 0 0 1 2-2h38a2.00229 2.00229 0 0 1 2 2z"/><path d="m10 41a2.0001 2.0001 0 0 0 -2 2v24a2 2 0 0 0 4 0v-24a2.0001 2.0001 0 0 0 -2-2z"/><path d="m10 110.5a2.0001 2.0001 0 0 0 2-2v-9a2 2 0 0 0 -4 0v9a2.0001 2.0001 0 0 0 2 2z"/><path d="m122 33h-3.10107a5.00013 5.00013 0 0 0 .10107-1v-22a5.00589 5.00589 0 0 0 -5-5h-40a5.00589 5.00589 0 0 0 -5 5v22a5.00013 5.00013 0 0 0 .10107 1h-7.10107a6.00656 6.00656 0 0 0 -6 6v78a6.00656 6.00656 0 0 0 6 6h60a6.00656 6.00656 0 0 0 6-6v-78a6.00656 6.00656 0 0 0 -6-6zm-17-24h9a1.001 1.001 0 0 1 1 1v22a1.001 1.001 0 0 1 -1 1h-9zm-32 1a1.001 1.001 0 0 1 1-1h27v24h-27a1.001 1.001 0 0 1 -1-1zm51 107a2.00229 2.00229 0 0 1 -2 2h-60a2.00229 2.00229 0 0 1 -2-2v-56h64zm0-60h-64v-18a2.00229 2.00229 0 0 1 2-2h60a2.00229 2.00229 0 0 1 2 2z"/><path d="m92 111a19 19 0 1 0 -19-19 19.02161 19.02161 0 0 0 19 19zm0-34a15 15 0 1 1 -15 15 15.01672 15.01672 0 0 1 15-15z"/><path d="m90 101a2.0001 2.0001 0 0 0 2 2 11.01245 11.01245 0 0 0 11-11 2 2 0 0 0 -4 0 7.00818 7.00818 0 0 1 -7 7 2.0001 2.0001 0 0 0 -2 2z"/><path d="m83 94a2.0001 2.0001 0 0 0 2-2 7.00818 7.00818 0 0 1 7-7 2 2 0 0 0 0-4 11.01245 11.01245 0 0 0 -11 11 2.0001 2.0001 0 0 0 2 2z"/><path d="m72 45h-6a2 2 0 0 0 0 4h6a2 2 0 0 0 0-4z"/><path d="m98 41a6 6 0 1 0 6 6 6.00656 6.00656 0 0 0 -6-6zm0 8a2 2 0 1 1 2-2 2.00229 2.00229 0 0 1 -2 2z"/><path d="m114 41a6 6 0 1 0 6 6 6.00656 6.00656 0 0 0 -6-6zm0 8a2 2 0 1 1 2-2 2.00229 2.00229 0 0 1 -2 2z"/><path d="m95 27.5a2.0001 2.0001 0 0 0 2-2v-9a2 2 0 0 0 -4 0v9a2.0001 2.0001 0 0 0 2 2z"/><path d="m111 15h-2a2 2 0 0 0 0 4h2a2 2 0 0 0 0-4z"/><path d="m111 23h-2a2 2 0 0 0 0 4h2a2 2 0 0 0 0-4z"/></svg>