<svg id="Layer_1" enable-background="new 0 0 511 511" height="512" viewBox="0 0 511 511" width="512" xmlns="http://www.w3.org/2000/svg"><g><path d="m215.5 384h16v15h-16z"/><path d="m247.5 384h16v15h-16z"/><path d="m279.5 384h16v15h-16z"/><path d="m471 215.5v-7.5h-7.5c-15.964 0-30.366 6.784-40.5 17.61v-66.61h24.5c17.369 0 31.5-14.131 31.5-31.5v-56c0-12.958-10.542-23.5-23.5-23.5-4.04 0-7.846 1.026-11.17 2.829-4.887-11.075-15.967-18.829-28.83-18.829s-23.943 7.754-28.83 18.829c-3.324-1.803-7.13-2.829-11.17-2.829-12.958 0-23.5 10.542-23.5 23.5v56c0 17.369 14.131 31.5 31.5 31.5h24.5v66.61c-10.134-10.826-24.536-17.61-40.5-17.61h-7.5v7.5c0 15.964 6.784 30.365 17.61 40.5h-84.22c10.826-10.135 17.61-24.536 17.61-40.5v-7.5h-7.5c-15.964 0-30.366 6.784-40.5 17.61v-66.61h24.5c17.369 0 31.5-14.131 31.5-31.5v-56c0-12.958-10.542-23.5-23.5-23.5-4.04 0-7.846 1.026-11.17 2.829-4.887-11.075-15.967-18.829-28.83-18.829s-23.943 7.754-28.83 18.829c-3.324-1.803-7.13-2.829-11.17-2.829-12.958 0-23.5 10.542-23.5 23.5v56c0 17.369 14.131 31.5 31.5 31.5h24.5v66.61c-10.135-10.826-24.536-17.61-40.5-17.61h-7.5v7.5c0 15.964 6.784 30.365 17.61 40.5h-26.11v15h280.5v33h-433v-33h136.501v-15h-42.111c10.826-10.135 17.61-24.536 17.61-40.5v-7.5h-7.5c-15.964 0-30.366 6.784-40.5 17.61v-66.61h24.5c17.369 0 31.5-14.131 31.5-31.5v-56c0-12.958-10.542-23.5-23.5-23.5-4.04 0-7.846 1.026-11.17 2.829-4.887-11.075-15.967-18.829-28.83-18.829s-23.943 7.754-28.83 18.829c-3.324-1.803-7.129-2.829-11.17-2.829-12.958 0-23.5 10.542-23.5 23.5v56c0 17.369 14.131 31.5 31.5 31.5h24.5v66.61c-10.134-10.826-24.536-17.61-40.5-17.61h-7.5v7.5c0 15.964 6.784 30.365 17.61 40.5h-33.61v63h32v160h399v-160h32v-63h-33.61c10.826-10.135 17.61-24.536 17.61-40.5zm-24-88v-56c0-4.687 3.814-8.5 8.5-8.5s8.5 3.813 8.5 8.5v56c0 9.098-7.402 16.5-16.5 16.5h-5.181c2.965-4.802 4.681-10.454 4.681-16.5zm-63.5 16.5c-9.098 0-16.5-7.402-16.5-16.5v-56c0-4.687 3.814-8.5 8.5-8.5s8.5 3.813 8.5 8.5v56c0 6.046 1.716 11.698 4.681 16.5zm-96.5-16.5v-56c0-4.687 3.814-8.5 8.5-8.5s8.5 3.813 8.5 8.5v56c0 9.098-7.402 16.5-16.5 16.5h-5.181c2.965-4.802 4.681-10.454 4.681-16.5zm-63.5 16.5c-9.098 0-16.5-7.402-16.5-16.5v-56c0-4.687 3.814-8.5 8.5-8.5s8.5 3.813 8.5 8.5v56c0 6.046 1.716 11.698 4.681 16.5zm-7.631 79.87c15.63 3.296 27.965 15.631 31.262 31.261-15.63-3.296-27.965-15.632-31.262-31.261zm39.631-79.87c-9.098 0-16.5-7.402-16.5-16.5v-64c0-9.098 7.402-16.5 16.5-16.5s16.5 7.402 16.5 16.5v64c0 9.098-7.402 16.5-16.5 16.5zm8.369 111.13c3.297-15.63 15.632-27.965 31.262-31.261-3.297 15.63-15.632 27.966-31.262 31.261zm112-31.26c15.63 3.296 27.965 15.631 31.262 31.261-15.63-3.296-27.965-15.632-31.262-31.261zm39.631-79.87c-9.098 0-16.5-7.402-16.5-16.5v-64c0-9.098 7.402-16.5 16.5-16.5s16.5 7.402 16.5 16.5v64c0 9.098-7.402 16.5-16.5 16.5zm-280.369 79.87c-3.297 15.63-15.632 27.965-31.262 31.261 3.297-15.63 15.632-27.966 31.262-31.261zm-8.131-96.37v-56c0-4.687 3.814-8.5 8.5-8.5s8.5 3.813 8.5 8.5v56c0 9.098-7.402 16.5-16.5 16.5h-5.181c2.965-4.802 4.681-10.454 4.681-16.5zm-63.5 16.5c-9.098 0-16.5-7.402-16.5-16.5v-56c0-4.687 3.813-8.5 8.5-8.5s8.5 3.813 8.5 8.5v56c0 6.046 1.716 11.698 4.681 16.5zm15.5-16.5v-64c0-9.098 7.402-16.5 16.5-16.5s16.5 7.402 16.5 16.5v64c0 9.098-7.402 16.5-16.5 16.5s-16.5-7.402-16.5-16.5zm-23.131 96.37c15.63 3.296 27.965 15.631 31.262 31.261-15.63-3.296-27.965-15.632-31.262-31.261zm384.131 208.13h-352.5v15h352.5v17h-369v-113h369zm0-96h-369v-17h369zm-16.131-80.87c3.297-15.63 15.632-27.965 31.262-31.261-3.297 15.63-15.632 27.966-31.262 31.261z"/><path d="m47 183.5c0-12.958-10.542-23.5-23.5-23.5s-23.5 10.542-23.5 23.5 10.542 23.5 23.5 23.5 23.5-10.542 23.5-23.5zm-23.5 8.5c-4.687 0-8.5-3.813-8.5-8.5s3.813-8.5 8.5-8.5 8.5 3.813 8.5 8.5-3.813 8.5-8.5 8.5z"/><path d="m152 183.5c0 12.958 10.542 23.5 23.5 23.5s23.5-10.542 23.5-23.5-10.542-23.5-23.5-23.5-23.5 10.542-23.5 23.5zm23.5-8.5c4.686 0 8.5 3.813 8.5 8.5s-3.814 8.5-8.5 8.5-8.5-3.813-8.5-8.5 3.814-8.5 8.5-8.5z"/><path d="m487.5 160c-12.958 0-23.5 10.542-23.5 23.5s10.542 23.5 23.5 23.5 23.5-10.542 23.5-23.5-10.542-23.5-23.5-23.5zm0 32c-4.686 0-8.5-3.813-8.5-8.5s3.814-8.5 8.5-8.5 8.5 3.813 8.5 8.5-3.814 8.5-8.5 8.5z"/></g></svg>