<svg id="Capa_1" enable-background="new 0 0 512 512" height="512" viewBox="0 0 512 512" width="512" xmlns="http://www.w3.org/2000/svg"><g id="Animal_Care"><g><g><path d="m256 408.752-61.817-61.818c-17.544-17.544-17.544-46.091 0-63.635 17.059-17.059 44.214-17.509 61.817-1.722 17.606-15.79 44.761-15.335 61.817 1.722 17.544 17.544 17.544 46.091 0 63.635zm-40.604-104.24c-5.866 5.868-5.865 15.342 0 21.209l40.604 40.604 40.604-40.604c5.866-5.868 5.865-15.342 0-21.209-5.848-5.847-15.361-5.847-21.209 0l-19.395 19.396-19.396-19.396c-5.848-5.847-15.361-5.847-21.208 0z"/></g></g><g><path d="m342.713 483.592c-27.638-11.573-58.962-24.691-86.713-24.691s-59.075 13.118-86.713 24.691c-35.501 14.867-66.16 27.704-88.205 13.039-13.513-8.992-20.082-26.24-20.082-52.73 0-56.514 17.687-118.301 47.313-165.28 34.228-54.279 84.519-89.72 147.688-89.72 63.158 0 113.452 35.429 147.688 89.72 29.624 46.979 47.311 108.766 47.311 165.28 0 26.49-6.569 43.738-20.082 52.729-23.316 15.513-57.734-.278-88.205-13.038zm-86.713-54.691c33.778 0 68.057 14.354 98.301 27.02 14.336 6.003 50.395 22.122 59.998 15.733 1.572-1.046 6.701-6.139 6.701-27.753 0-51.085-15.958-106.89-42.688-149.278-21.784-34.544-60.687-75.722-122.313-75.722s-100.528 41.178-122.313 75.722c-26.728 42.388-42.686 98.192-42.686 149.278 0 21.614 5.129 26.707 6.701 27.753 8.664 5.764 37.128-6.156 59.998-15.733 30.244-12.666 64.523-27.02 98.301-27.02z"/></g><g><path d="m181 158.901c-31.009 0-60-30.539-60-75 0-44.903 29.308-75 60-75 31.009 0 60 30.539 60 75 0 44.903-29.308 75-60 75zm0-120c-16.262 0-30 20.607-30 45s13.738 45 30 45 30-20.607 30-45-13.738-45-30-45z"/></g><g><path d="m452 248.901c-31.009 0-60-30.539-60-75 0-44.903 29.308-75 60-75 31.009 0 60 30.539 60 75 0 44.903-29.308 75-60 75zm0-120c-16.262 0-30 20.607-30 45s13.738 45 30 45 30-20.607 30-45-13.738-45-30-45z"/></g><g><path d="m60 248.901c-31.009 0-60-30.539-60-75 0-44.903 29.308-75 60-75 31.009 0 60 30.539 60 75 0 44.903-29.308 75-60 75zm0-120c-16.262 0-30 20.607-30 45s13.738 45 30 45 30-20.607 30-45-13.738-45-30-45z"/></g><g><path d="m331 158.901c-31.009 0-60-30.539-60-75 0-44.903 29.308-75 60-75 31.009 0 60 30.539 60 75 0 44.903-29.308 75-60 75zm0-120c-16.262 0-30 20.607-30 45s13.738 45 30 45 30-20.607 30-45-13.738-45-30-45z"/></g></g></svg>