<?xml version="1.0" encoding="UTF-8" standalone="no"?>
<!-- Created with Inkscape (http://www.inkscape.org/) -->

<svg
   version="1.1"
   id="svg2055"
   xml:space="preserve"
   width="682.66669"
   height="682.66669"
   viewBox="0 0 682.66669 682.66669"
   xmlns="http://www.w3.org/2000/svg"
   xmlns:svg="http://www.w3.org/2000/svg"><defs
     id="defs2059"><clipPath
       clipPathUnits="userSpaceOnUse"
       id="clipPath2069"><path
         d="M 0,512 H 512 V 0 H 0 Z"
         id="path2067" /></clipPath></defs><g
     id="g2061"
     transform="matrix(1.3333333,0,0,-1.3333333,0,682.66667)"><g
       id="g2063"><g
         id="g2065"
         clip-path="url(#clipPath2069)"><g
           id="g2071"
           transform="translate(28.7598,50.0767)"><path
             d="m 0,0 h 68.457 c 11.679,0 21.26,-9.553 21.26,-21.232 v -16.923 c 0,-2.381 -1.956,-4.337 -4.365,-4.337 H -16.923 c -2.381,0 -4.337,1.956 -4.337,4.337 v 16.923 C -21.26,-9.553 -11.707,0 0,0 Z"
             style="fill:none;stroke:#000000;stroke-width:15;stroke-linecap:round;stroke-linejoin:round;stroke-miterlimit:10;stroke-dasharray:none;stroke-opacity:1"
             id="path2073" /></g><g
           id="g2075"
           transform="translate(130.4956,318.5469)"><path
             d="m 0,0 h 157.465 c 3.572,0 6.492,2.919 6.492,6.491 v 157.465 c 0,3.572 -2.92,6.492 -6.492,6.492 H 0 c -3.572,0 -6.491,-2.92 -6.491,-6.492 V 6.491 C -6.491,2.919 -3.572,0 0,0 Z"
             style="fill:none;stroke:#000000;stroke-width:15;stroke-linecap:round;stroke-linejoin:round;stroke-miterlimit:10;stroke-dasharray:none;stroke-opacity:1"
             id="path2077" /></g><g
           id="g2079"
           transform="translate(43.812,209.6675)"><path
             d="m 0,0 v 275.67 c 0,10.545 8.617,19.163 19.162,19.163 10.545,0 19.162,-8.618 19.162,-19.163 V -159.591 H 0 v 125.377"
             style="fill:none;stroke:#000000;stroke-width:15;stroke-linecap:round;stroke-linejoin:round;stroke-miterlimit:10;stroke-dasharray:none;stroke-opacity:1"
             id="path2081" /></g><path
           d="m 82.136,435.589 h 41.868 v 36.142 H 82.136 Z"
           style="fill:none;stroke:#000000;stroke-width:15;stroke-linecap:round;stroke-linejoin:round;stroke-miterlimit:10;stroke-dasharray:none;stroke-opacity:1"
           id="path2083" /><path
           d="m 82.136,335.81 h 41.868 v 36.142 H 82.136 Z"
           style="fill:none;stroke:#000000;stroke-width:15;stroke-linecap:round;stroke-linejoin:round;stroke-miterlimit:10;stroke-dasharray:none;stroke-opacity:1"
           id="path2085" /><g
           id="g2087"
           transform="translate(448.0625,219.1636)"><path
             d="m 0,0 h 33.42 c 12.643,0 23.018,-10.432 23.018,-23.187 0,-12.756 -10.375,-23.188 -23.018,-23.188 H 21.968"
             style="fill:none;stroke:#000000;stroke-width:15;stroke-linecap:round;stroke-linejoin:round;stroke-miterlimit:10;stroke-dasharray:none;stroke-opacity:1"
             id="path2089" /></g><g
           id="g2091"
           transform="translate(347.5166,45.9097)"><path
             d="m 0,0 h 132.605 c 7.795,0 8.051,3.09 8.051,11.367 v 65.339 c 0,11.423 0.538,10.828 -4.366,21.146 L 88.696,198.256 c -12.16,25.653 -14.542,25.342 -43.568,25.256 H -79.71 c -28.999,0.086 -31.38,0.397 -43.54,-25.256 L -170.844,97.852 c -4.905,-10.318 -4.394,-9.723 -4.394,-21.146 V 11.367 C -175.238,3.09 -174.955,0 -167.159,0 h 133.03"
             style="fill:none;stroke:#000000;stroke-width:15;stroke-linecap:round;stroke-linejoin:round;stroke-miterlimit:10;stroke-dasharray:none;stroke-opacity:1"
             id="path2093" /></g><g
           id="g2095"
           transform="translate(190.4204,172.7886)"><path
             d="M 0,0 H 279.61"
             style="fill:none;stroke:#000000;stroke-width:15;stroke-linecap:round;stroke-linejoin:round;stroke-miterlimit:10;stroke-dasharray:none;stroke-opacity:1"
             id="path2097" /></g><g
           id="g2099"
           transform="translate(212.417,219.1636)"><path
             d="m 0,0 h -33.42 c -12.671,0 -23.018,-10.432 -23.018,-23.187 0,-12.756 10.347,-23.188 23.018,-23.188 h 11.423"
             style="fill:none;stroke:#000000;stroke-width:15;stroke-linecap:round;stroke-linejoin:round;stroke-miterlimit:10;stroke-dasharray:none;stroke-opacity:1"
             id="path2101" /></g><g
           id="g2103"
           transform="translate(368.2666,86.1616)"><path
             d="m 0,0 h -76.054 m 0,33.902 H 0"
             style="fill:none;stroke:#000000;stroke-width:15;stroke-linecap:round;stroke-linejoin:round;stroke-miterlimit:10;stroke-dasharray:none;stroke-opacity:1"
             id="path2105" /></g><g
           id="g2107"
           transform="translate(424.6475,86.1616)"><path
             d="M 0,0 C 13.21,0 23.981,10.8 23.981,24.01 23.981,37.248 13.21,48.019 0,48.019 -13.237,48.019 -24.009,37.248 -24.009,24.01 -24.009,10.8 -13.237,0 0,0 Z"
             style="fill:none;stroke:#000000;stroke-width:15;stroke-linecap:round;stroke-linejoin:round;stroke-miterlimit:10;stroke-dasharray:none;stroke-opacity:1"
             id="path2109" /></g><g
           id="g2111"
           transform="translate(235.8315,86.1616)"><path
             d="M 0,0 C 13.238,0 24.009,10.8 24.009,24.01 24.009,37.248 13.238,48.019 0,48.019 -13.209,48.019 -23.981,37.248 -23.981,24.01 -23.981,10.8 -13.209,0 0,0 Z"
             style="fill:none;stroke:#000000;stroke-width:15;stroke-linecap:round;stroke-linejoin:round;stroke-miterlimit:10;stroke-dasharray:none;stroke-opacity:1"
             id="path2113" /></g><g
           id="g2115"
           transform="translate(237.6172,45.9097)"><path
             d="M 0,0 V -27.156 C 0,-33.335 -5.045,-38.41 -11.225,-38.41 h -34.781 c -6.18,0 -11.254,5.075 -11.254,11.254 V 0 Z"
             style="fill:none;stroke:#000000;stroke-width:15;stroke-linecap:round;stroke-linejoin:round;stroke-miterlimit:10;stroke-dasharray:none;stroke-opacity:1"
             id="path2117" /></g><g
           id="g2119"
           transform="translate(480.1221,45.9097)"><path
             d="M 0,0 V -27.156 C 0,-33.335 -5.074,-38.41 -11.254,-38.41 h -34.781 c -6.18,0 -11.253,5.075 -11.253,11.254 V 0 Z"
             style="fill:none;stroke:#000000;stroke-width:15;stroke-linecap:round;stroke-linejoin:round;stroke-miterlimit:10;stroke-dasharray:none;stroke-opacity:1"
             id="path2121" /></g><g
           id="g2123"
           transform="translate(180.5293,459.041)"><path
             d="M 0,0 V -110.541"
             style="fill:none;stroke:#000000;stroke-width:15;stroke-linecap:round;stroke-linejoin:round;stroke-miterlimit:10;stroke-dasharray:none;stroke-opacity:1"
             id="path2125" /></g><g
           id="g2127"
           transform="translate(243.1143,427.8462)"><path
             d="m 0,0 c 0,-17.228 -14.577,-31.195 -31.806,-31.195 -8.544,0 -30.565,-0.138 -30.565,-0.138 0,0 -0.137,22.649 -0.137,31.333 0,7.133 -0.077,31.195 -0.077,31.195 h 30.779 C -14.577,31.195 0,17.229 0,0 Z"
             style="fill:none;stroke:#000000;stroke-width:15;stroke-linecap:round;stroke-linejoin:round;stroke-miterlimit:10;stroke-dasharray:none;stroke-opacity:1"
             id="path2129" /></g></g></g></g></svg>
