<svg id="Layer_1" height="300" viewBox="0 0 50 50" width="300" xmlns="http://www.w3.org/2000/svg" version="1.1" xmlns:xlink="http://www.w3.org/1999/xlink" xmlns:svgjs="http://svgjs.dev/svgjs"><g width="100%" height="100%" transform="matrix(1,0,0,1,0,0)"><g><g><path d="m25 38.9c-7.7 0-13.9-6.2-13.9-13.9s6.2-13.9 13.9-13.9 13.9 6.2 13.9 13.9-6.2 13.9-13.9 13.9zm0-25.8c-6.6 0-11.9 5.3-11.9 11.9s5.3 11.9 11.9 11.9 11.9-5.3 11.9-11.9-5.3-11.9-11.9-11.9z" fill="#ffffff" fill-opacity="1" data-original-color="#000000ff" stroke="none" stroke-opacity="1"/></g><g><path d="m16.1 26c-.6 0-1-.4-1-1 0-5.5 4.4-9.9 9.9-9.9.6 0 1 .4 1 1s-.4 1-1 1c-4.4 0-7.9 3.5-7.9 7.9 0 .6-.4 1-1 1z" fill="#ffffff" fill-opacity="1" data-original-color="#000000ff" stroke="none" stroke-opacity="1"/></g><g><g><path d="m25 49c-.3 0-.7-.2-.8-.5l-3.8-6.1-6.4 3.4c-.3.2-.7.2-1 0s-.5-.5-.5-.8l-.3-7.2-7.2-.3c-.3 0-.7-.2-.8-.5-.2-.3-.2-.7 0-1l3.4-6.4-6.1-3.8c-.3-.1-.5-.5-.5-.8s.2-.7.5-.8l6.1-3.8-3.4-6.4c-.2-.3-.2-.7 0-1s.5-.5.8-.5l7.2-.3.3-7.2c0-.3.2-.7.5-.8.3-.2.7-.2 1 0l6.4 3.4 3.8-6.1c.4-.6 1.3-.6 1.7 0l3.8 6.1 6.3-3.4c.3-.2.7-.2 1 0s.5.5.5.8l.3 7.2 7.2.3c.3 0 .7.2.8.5.2.3.2.7 0 1l-3.4 6.4 6.1 3.8c.3.2.5.5.5.8s-.2.7-.5.8l-6.1 3.8 3.4 6.4c.2.3.2.7 0 1s-.5.5-.8.5l-7.2.3-.3 7.2c0 .3-.2.7-.5.8-.3.2-.7.2-1 0l-6.4-3.4-3.8 6.1c-.1.3-.5.5-.8.5zm-4.3-8.9c.3 0 .7.2.8.5l3.5 5.5 3.5-5.5c.3-.4.8-.6 1.3-.4l5.8 3.1.2-6.5c0-.5.4-.9 1-1l6.5-.2-3.1-5.8c-.2-.5-.1-1 .4-1.3l5.5-3.5-5.5-3.5c-.4-.3-.6-.9-.4-1.3l3.1-5.8-6.5-.2c-.5 0-.9-.4-1-1l-.2-6.5-5.8 3.1c-.5.2-1 .1-1.3-.4l-3.5-5.5-3.5 5.5c-.3.4-.9.6-1.3.4l-5.8-3.1-.2 6.5c0 .5-.4.9-1 1l-6.5.2 3.1 5.8c.2.5.1 1-.4 1.3l-5.5 3.5 5.5 3.5c.4.3.6.9.4 1.3l-3.1 5.8 6.5.2c.5 0 .9.4 1 1l.2 6.5 5.8-3.1c.2-.1.3-.1.5-.1z" fill="#ffffff" fill-opacity="1" data-original-color="#000000ff" stroke="none" stroke-opacity="1"/></g></g></g></g></svg>