<svg fill="none" height="300" viewBox="0 0 24 24" width="300" xmlns="http://www.w3.org/2000/svg" version="1.1" xmlns:xlink="http://www.w3.org/1999/xlink" xmlns:svgjs="http://svgjs.dev/svgjs"><g width="100%" height="100%" transform="matrix(1,0,0,1,0,0)"><path clip-rule="evenodd" d="m16.5464 4.49577c-3.3277-3.32769-8.72294-3.32769-12.05063 0s-3.32769 8.72293 0 12.05063c2.80659 2.8066 7.08613 3.2471 10.35403 1.3171.3928-.2321.893-.1687 1.2156.1539l3.5783 3.5783c.5391.5391 1.413.5391 1.952 0 .5391-.539.5391-1.4129 0-1.952l-3.5783-3.5783c-.3226-.3226-.386-.8228-.1539-1.2156 1.93-3.2679 1.4895-7.54744-1.3171-10.35403zm-13.46484-1.41421c4.10874-4.10875 10.77034-4.10875 14.87904 0 3.2733 3.27332 3.938 8.16484 1.9977 12.09634l3.0516 3.0516c1.3201 1.3201 1.3201 3.4604 0 4.7804-1.32 1.3201-3.4603 1.3201-4.7804 0l-3.0516-3.0516c-3.9315 1.9403-8.82302 1.2756-12.09634-1.9977-4.10875-4.1087-4.10875-10.7703 0-14.87904zm10.09864 4.78042c-1.4686-1.46858-3.84963-1.46858-5.31821 0-1.46858 1.46859-1.46858 3.84962 0 5.31822s3.84961 1.4686 5.31821 0 1.4686-3.84963 0-5.31822zm-6.73242-1.41421c2.24963-2.24963 5.89702-2.24963 8.14662 0s2.2496 5.89703 0 8.14663-5.89699 2.2496-8.14662 0c-2.24964-2.2496-2.24964-5.897 0-8.14663z" fill="#ffffff" fill-rule="evenodd" fill-opacity="1" data-original-color="#000000ff" stroke="none" stroke-opacity="1"/></g></svg>