<svg id="Layer_2" viewBox="0 0 512 512" xmlns="http://www.w3.org/2000/svg" data-name="Layer 2"><g id="Icon"><g id="_66" data-name="66"><rect id="Background" fill="#1770ff" height="512" rx="150" width="512"/><path d="m168.25 205.38c-1.8-1.8-2.7-4.12-2.7-6.98s1.64-7.2 4.95-13.05c3.3-5.85 7.95-10.58 13.95-14.17 6-3.6 10.5-5.4 13.5-5.4s5.4.9 7.2 2.7l50.4 50.85 51.3-51.3c1.8-1.8 4.12-2.7 6.97-2.7s7.27 1.73 13.28 5.17c6 3.45 10.72 8.18 14.17 14.17 3.45 6 5.17 10.43 5.17 13.28s-.9 5.17-2.7 6.97l-51.3 51.3 50.85 50.85c1.8 1.8 2.7 3.82 2.7 6.07s-.83 5.33-2.47 9.23c-1.65 3.9-4.88 8.1-9.67 12.6-8.1 7.8-15 11.7-20.7 11.7-2.7 0-4.95-.9-6.75-2.7l-50.85-50.85-49.95 49.95c-2.1 2.1-5.25 3.15-9.45 3.15s-10.35-4.05-18.45-12.15-12.15-14.25-12.15-18.45 1.05-7.35 3.15-9.45l49.95-49.95-50.4-50.85z" fill="#fff"/></g></g></svg>