<svg id="_x31__x2C_5" height="512" viewBox="0 0 24 24" width="512" xmlns="http://www.w3.org/2000/svg"><path d="m5.25 23.25c-.827 0-1.5-.673-1.5-1.5v-9.5h-2.5c-.276 0-.5-.225-.5-.5 0-.132.056-.267.15-.359l11.1-10.641 4.75 4.554v-3.304c0-.138.112-.25.25-.25h3c.138 0 .25.112.25.25v6.659l2.849 2.73c.093.093.151.227.151.36 0 .275-.224.5-.5.5h-2.5v9.5c0 .827-.673 1.5-1.5 1.5h-13.5z" fill="#cfd8dc"/><path d="m18.75 24h-13.5c-1.241 0-2.25-1.01-2.25-2.25v-8.75h-1.75c-.689 0-1.25-.561-1.25-1.25 0-.329.134-.652.367-.888l11.114-10.653c.29-.279.748-.278 1.038-.001l3.481 3.335v-1.793c0-.414.336-.75.75-.75h3.5c.414 0 .75.336.75.75v6.59l2.619 2.508c.247.25.381.573.381.902 0 .689-.561 1.25-1.25 1.25h-1.75v8.75c0 1.24-1.009 2.25-2.25 2.25zm-16.881-12.5h1.881c.414 0 .75.336.75.75v9.5c0 .413.336.75.75.75h13.5c.414 0 .75-.337.75-.75v-9.5c0-.414.336-.75.75-.75h1.881l-2.4-2.298c-.148-.141-.231-.338-.231-.542v-6.16h-2v2.8c0 .301-.179.572-.456.689-.274.119-.596.06-.813-.147l-4.231-4.053zm20.698.417h.01z"/><path d="m12 21c-.414 0-.75-.336-.75-.75v-9.5c0-.414.336-.75.75-.75s.75.336.75.75v9.5c0 .414-.336.75-.75.75z"/><path d="m16.75 16.25h-9.5c-.414 0-.75-.336-.75-.75s.336-.75.75-.75h9.5c.414 0 .75.336.75.75s-.336.75-.75.75z"/></svg>