<svg id="Layer_1" viewBox="0 0 512 512" xmlns="http://www.w3.org/2000/svg" data-name="Layer 1"><path d="m456 191.85h-135.85v-135.85c0-22.06-17.94-40-40-40h-48.3c-22.05 0-40 17.94-40 40v135.85h-135.85c-22.05 0-40 17.95-40 40v48.3c0 22.06 17.94 40 40 40h135.85v135.85c0 22.06 17.95 40 40 40h48.3c22.06 0 40-17.94 40-40v-135.85h135.85c22.06 0 40-17.94 40-40v-48.3c0-22.05-17.94-40-40-40zm10 88.3c0 5.51-4.49 10-10 10h-150.85c-3.98 0-7.79 1.58-10.61 4.39-2.81 2.81-4.39 6.63-4.39 10.61v150.85c0 5.51-4.49 10-10 10h-48.3c-5.51 0-10-4.49-10-10v-150.85c0-3.98-1.58-7.8-4.39-10.61s-6.63-4.39-10.61-4.39h-150.85c-5.51 0-10-4.49-10-10v-48.3c0-2.75 1.12-5.25 2.93-7.07 1.81-1.81 4.31-2.93 7.07-2.93h150.85c8.29 0 15-6.71 15-15v-150.85c0-5.51 4.49-10 10-10h48.3c5.51 0 10 4.49 10 10v150.85c0 8.29 6.71 15 15 15h150.85c5.51 0 10 4.49 10 10z" fill="#282828"/><path d="m466 231.85v48.3c0 5.51-4.49 10-10 10h-150.85c-3.98 0-7.79 1.58-10.61 4.39-2.81 2.81-4.39 6.63-4.39 10.61v150.85c0 5.51-4.49 10-10 10h-48.3c-5.51 0-10-4.49-10-10v-150.85c0-3.98-1.58-7.8-4.39-10.61s-6.63-4.39-10.61-4.39h-150.85c-5.51 0-10-4.49-10-10v-48.3c0-2.75 1.12-5.25 2.93-7.07 1.81-1.81 4.31-2.93 7.07-2.93h150.85c8.29 0 15-6.71 15-15v-150.85c0-5.51 4.49-10 10-10h48.3c5.51 0 10 4.49 10 10v150.85c0 8.29 6.71 15 15 15h150.85c5.51 0 10 4.49 10 10z" fill="#ffc72e"/></svg>